<svg xmlns="http://www.w3.org/2000/svg" viewBox="0 0 64 64"><defs><style>.cls-1{fill:#1d1f21;}</style></defs><title>Asset 36</title><g id="Layer_2" data-name="Layer 2"><g id="Layer_1-2" data-name="Layer 1"><path class="cls-1" d="M3.1,18.58a3.1,3.1,0,1,1,3.1-3.1A3.1,3.1,0,0,1,3.1,18.58Zm0-4.13a1,1,0,1,0,1,1A1,1,0,0,0,3.1,14.45Z"/><path class="cls-1" d="M17.55,35.1a3.1,3.1,0,1,1,3.1-3.1A3.1,3.1,0,0,1,17.55,35.1Zm0-4.13a1,1,0,1,0,1,1A1,1,0,0,0,17.55,31Z"/><path class="cls-1" d="M46.45,6.19a3.1,3.1,0,1,1,3.1-3.1A3.1,3.1,0,0,1,46.45,6.19Zm0-4.13a1,1,0,1,0,1,1A1,1,0,0,0,46.45,2.06Z"/><path class="cls-1" d="M60.9,22.71a3.1,3.1,0,1,1,3.1-3.1A3.1,3.1,0,0,1,60.9,22.71Zm0-4.13a1,1,0,1,0,1,1A1,1,0,0,0,60.9,18.58Z"/><path class="cls-1" d="M37.16,35.1a3.1,3.1,0,1,1,3.1-3.1A3.1,3.1,0,0,1,37.16,35.1Zm0-4.13a1,1,0,1,0,1,1A1,1,0,0,0,37.16,31Z"/><path class="cls-1" d="M18.65,33l-.09-1.1a1,1,0,0,0-2,0L16.44,33l-1.09-.16A15.54,15.54,0,0,1,2.06,17.55H4.13A13.47,13.47,0,0,0,14.77,30.66a3.08,3.08,0,0,1,5.56,0A13.47,13.47,0,0,0,31,17.55,15.54,15.54,0,0,1,44.26,2.24l1.09-.16.09,1.1a1,1,0,0,0,2,0l.09-1.1,1.09.16A15.54,15.54,0,0,1,61.94,17.55H59.87A13.47,13.47,0,0,0,49.23,4.44a3.08,3.08,0,0,1-5.56,0A13.47,13.47,0,0,0,33,17.55,15.54,15.54,0,0,1,19.74,32.86Z"/><polygon class="cls-1" points="24.77 51.72 22.71 51.51 23.69 41.72 17.55 36.46 11.4 41.72 12.38 51.51 10.33 51.72 9.24 40.86 17.55 33.74 25.86 40.86 24.77 51.72"/><rect class="cls-1" x="10.32" y="55.74" width="2.06" height="8.26"/><rect class="cls-1" x="22.71" y="55.74" width="2.06" height="8.26"/><path class="cls-1" d="M24.77,56.77H10.32a3.1,3.1,0,1,1,0-6.19H24.77a3.1,3.1,0,0,1,0,6.19ZM10.32,52.65a1,1,0,1,0,0,2.06H24.77a1,1,0,0,0,0-2.06Z"/><rect class="cls-1" x="16.52" y="35.1" width="2.06" height="7.23"/><path class="cls-1" d="M17.55,47.48a3.1,3.1,0,1,1,3.1-3.1A3.1,3.1,0,0,1,17.55,47.48Zm0-4.13a1,1,0,1,0,1,1A1,1,0,0,0,17.55,43.35Z"/><rect class="cls-1" x="19.61" y="30.97" width="15.48" height="2.06"/></g></g></svg>