<?xml version="1.0" encoding="utf-8"?>
<!-- Generator: Adobe Illustrator 20.0.0, SVG Export Plug-In . SVG Version: 6.00 Build 0)  -->
<svg version="1.1" id="Layer_1" xmlns="http://www.w3.org/2000/svg" xmlns:xlink="http://www.w3.org/1999/xlink" x="0px" y="0px"
	 viewBox="0 0 64 64" style="enable-background:new 0 0 64 64;" xml:space="preserve">
<style type="text/css">
	.st0{fill:#1D1F21;}
</style>
<title>Asset 43</title>
<g id="Layer_2">
	<g id="Layer_1-2">
		<rect x="31" class="st0" width="2.1" height="4.1"/>
		<rect x="22.2" y="2.3" transform="matrix(0.866 -0.5 0.5 0.866 0.9042 12.2014)" class="st0" width="2.1" height="4.1"/>
		<rect x="15.8" y="8.8" transform="matrix(0.5 -0.866 0.866 0.5 -0.9896 19.9627)" class="st0" width="2.1" height="4.1"/>
		<rect x="12.4" y="18.6" class="st0" width="4.1" height="2.1"/>
		
			<rect x="14.7" y="27.4" transform="matrix(0.8661 -0.4998 0.4998 0.8661 -11.9388 12.1949)" class="st0" width="4.1" height="2.1"/>
		<rect x="46.2" y="26.3" transform="matrix(0.5 -0.866 0.866 0.5 -0.9871 55.0627)" class="st0" width="2.1" height="4.1"/>
		<rect x="47.5" y="18.6" class="st0" width="4.1" height="2.1"/>
		<rect x="45.1" y="9.8" transform="matrix(0.8661 -0.4998 0.4998 0.8661 0.9025 25.0423)" class="st0" width="4.1" height="2.1"/>
		<rect x="38.7" y="3.4" transform="matrix(0.4998 -0.8661 0.8661 0.4998 16.5682 37.5107)" class="st0" width="4.1" height="2.1"/>
		<path class="st0" d="M41.3,40.3h-5.2v-2.1h3.1v-9.8l0.3-0.3c4.7-4.2,5.1-11.4,0.9-16s-11.4-5.1-16-0.9s-5.1,11.4-0.9,16
			c0.3,0.3,0.6,0.6,0.9,0.9l0.3,0.3v9.8h3.1v2.1h-5.2v-11c-5.3-5.1-5.5-13.6-0.4-19s13.6-5.5,19-0.4s5.5,13.6,0.4,19
			c-0.1,0.1-0.3,0.3-0.4,0.4V40.3z"/>
		<rect x="20.6" y="29.9" class="st0" width="7.2" height="2.1"/>
		<rect x="20.6" y="34.1" class="st0" width="7.2" height="2.1"/>
		<rect x="36.1" y="29.9" class="st0" width="7.2" height="2.1"/>
		<rect x="36.1" y="34.1" class="st0" width="7.2" height="2.1"/>
		<path class="st0" d="M32,64c-2.8,0-5.2-2.3-5.2-5.2V23.4l5.2-6.4l5.2,6.5v35.5C37.1,61.7,34.8,64,32,64z M28.9,24.1v34.7
			c0.1,1.7,1.6,3,3.3,2.9c1.6-0.1,2.8-1.3,2.9-2.9V24.1L32,20.2L28.9,24.1z"/>
		<rect x="24.8" y="55.7" class="st0" width="14.4" height="2.1"/>
		<rect x="24.8" y="51.6" class="st0" width="14.4" height="2.1"/>
		<rect x="27.9" y="23.7" class="st0" width="8.3" height="2.1"/>
		<rect x="31" y="24.8" class="st0" width="2.1" height="27.9"/>
		<rect x="22.7" y="45.4" class="st0" width="2.1" height="2.1"/>
		<rect x="18.6" y="45.4" class="st0" width="2.1" height="2.1"/>
		<rect x="14.4" y="45.4" class="st0" width="2.1" height="2.1"/>
		<rect x="47.5" y="45.4" class="st0" width="2.1" height="2.1"/>
		<rect x="43.4" y="45.4" class="st0" width="2.1" height="2.1"/>
		<rect x="39.2" y="45.4" class="st0" width="2.1" height="2.1"/>
	</g>
</g>
</svg>
