<?xml version="1.0" encoding="utf-8"?>
<!-- Generator: Adobe Illustrator 20.0.0, SVG Export Plug-In . SVG Version: 6.00 Build 0)  -->
<svg version="1.1" id="Layer_1" xmlns="http://www.w3.org/2000/svg" xmlns:xlink="http://www.w3.org/1999/xlink" x="0px" y="0px"
	 viewBox="0 0 64 64" style="enable-background:new 0 0 64 64;" xml:space="preserve">
<style type="text/css">
	.st0{fill:#1D1F21;}
</style>
<title>Asset 71</title>
<g id="Layer_2">
	<g id="Layer_1-2">
		<path class="st0" d="M58.8,54.7H5.2c-2.8,0-5.2-2.3-5.2-5.2v-5.2h64v5.2C64,52.4,61.7,54.7,58.8,54.7z M2.1,46.5v3.1
			c0,1.7,1.4,3.1,3.1,3.1h53.7c1.7,0,3.1-1.4,3.1-3.1v-3.1H2.1z"/>
		<path class="st0" d="M59.9,46.5H4.1v-32c0-2.8,2.3-5.2,5.2-5.2h45.4c2.8,0,5.2,2.3,5.2,5.2V46.5z M6.2,44.4h51.6V14.5
			c0-1.7-1.4-3.1-3.1-3.1H9.3c-1.7,0-3.1,1.4-3.1,3.1V44.4z"/>
		<path class="st0" d="M36.1,50.6h-8.3c-1.7,0-3.1-1.4-3.1-3.1v-3.1h14.5v3.1C39.2,49.2,37.8,50.6,36.1,50.6z M26.8,46.5v1
			c0,0.6,0.4,1,1,1h8.3c0.6,0,1-0.4,1-1v-1H26.8z"/>
		<polygon class="st0" points="55.7,45.4 53.7,45.4 53.7,15.5 10.3,15.5 10.3,45.4 8.3,45.4 8.3,13.4 55.7,13.4 		"/>
		<path class="st0" d="M17.5,24.8c-1.7,0-3.1-1.4-3.1-3.1s1.4-3.1,3.1-3.1c1.7,0,3.1,1.4,3.1,3.1S19.3,24.8,17.5,24.8L17.5,24.8z
			 M17.5,20.6c-0.6,0-1,0.4-1,1c0,0.6,0.4,1,1,1s1-0.4,1-1C18.5,21.1,18.1,20.6,17.5,20.6z"/>
		<path class="st0" d="M46.5,24.8c-1.7,0-3.1-1.4-3.1-3.1s1.4-3.1,3.1-3.1c1.7,0,3.1,1.4,3.1,3.1v0C49.5,23.4,48.2,24.8,46.5,24.8z
			 M46.5,20.6c-0.6,0-1,0.4-1,1c0,0.6,0.4,1,1,1s1-0.4,1-1C47.5,21.1,47,20.6,46.5,20.6z"/>
		<path class="st0" d="M17.5,41.3c-1.7,0-3.1-1.4-3.1-3.1s1.4-3.1,3.1-3.1c1.7,0,3.1,1.4,3.1,3.1S19.3,41.3,17.5,41.3L17.5,41.3z
			 M17.5,37.2c-0.6,0-1,0.4-1,1s0.4,1,1,1s1-0.4,1-1C18.5,37.6,18.1,37.2,17.5,37.2z"/>
		<path class="st0" d="M46.5,41.3c-1.7,0-3.1-1.4-3.1-3.1s1.4-3.1,3.1-3.1c1.7,0,3.1,1.4,3.1,3.1c0,0,0,0,0,0
			C49.5,39.9,48.2,41.3,46.5,41.3z M46.5,37.2c-0.6,0-1,0.4-1,1s0.4,1,1,1s1-0.4,1-1S47,37.2,46.5,37.2z"/>
		<rect x="19.6" y="20.6" class="st0" width="24.8" height="2.1"/>
		<path class="st0" d="M47.5,36.1h-2.1c0-7.4-6-13.4-13.4-13.4s-13.4,6-13.4,13.4c0,0,0,0,0,0h-2.1c0-8.6,6.9-15.5,15.5-15.5
			S47.5,27.6,47.5,36.1L47.5,36.1z"/>
		<path class="st0" d="M38.1,41.3H25.9l-1.2-9.7l7.3-7.3l7.3,7.3L38.1,41.3z M27.8,39.2h8.5l0.9-6.9L32,27.3l-5.1,5.1L27.8,39.2z"/>
		<rect x="31" y="25.8" class="st0" width="2.1" height="6.2"/>
		<path class="st0" d="M32,37.2c-1.7,0-3.1-1.4-3.1-3.1c0-1.7,1.4-3.1,3.1-3.1c1.7,0,3.1,1.4,3.1,3.1c0,0,0,0,0,0
			C35.1,35.8,33.7,37.2,32,37.2z M32,33c-0.6,0-1,0.4-1,1s0.4,1,1,1s1-0.4,1-1S32.6,33,32,33C32,33,32,33,32,33z"/>
	</g>
</g>
</svg>
