<svg xmlns="http://www.w3.org/2000/svg" viewBox="0 0 64 47.48"><defs><style>.cls-1{fill:#fff;}</style></defs><g id="Layer_2" data-name="Layer 2"><g id="Layer_1-2" data-name="Layer 1"><path class="cls-1" d="M60.9,47.48H3.1A3.1,3.1,0,0,1,0,44.39V3.1A3.1,3.1,0,0,1,3.1,0H60.9A3.1,3.1,0,0,1,64,3.1V44.39A3.1,3.1,0,0,1,60.9,47.48ZM3.1,2.06a1,1,0,0,0-1,1V44.39a1,1,0,0,0,1,1H60.9a1,1,0,0,0,1-1V3.1a1,1,0,0,0-1-1Z"/><rect class="cls-1" x="4.13" y="4.13" width="2.06" height="2.06"/><rect class="cls-1" x="8.26" y="4.13" width="2.06" height="2.06"/><rect class="cls-1" x="12.39" y="4.13" width="2.06" height="2.06"/><rect class="cls-1" x="1.03" y="8.26" width="61.94" height="2.06"/><path class="cls-1" d="M24.77,20.65H18.58v-6.2h6.19Zm-4.12-2.07h2.06V16.52H20.65Z"/><path class="cls-1" d="M45.42,20.65H39.23v-6.2h6.19Zm-4.13-2.07h2.06V16.52H41.29Z"/><path class="cls-1" d="M24.77,41.29H18.58V35.1h6.19Zm-4.12-2.06h2.06V37.16H20.65Z"/><path class="cls-1" d="M37.16,40.69,32,35.52l-5.16,5.17v-18h18l-5.16,5.16L44.81,33ZM32,32.6l5.16,5.17L41.9,33l-5.17-5.16,3.1-3.1H28.9V35.7Z"/><rect class="cls-1" x="23.74" y="16.52" width="16.52" height="2.06"/><rect class="cls-1" x="20.65" y="19.61" width="2.06" height="16.52"/><rect class="cls-1" x="47.48" y="26.84" width="2.06" height="2.06"/><rect class="cls-1" x="51.61" y="26.84" width="2.06" height="2.06"/><rect class="cls-1" x="55.74" y="26.84" width="2.06" height="2.06"/><rect class="cls-1" x="6.19" y="26.84" width="2.06" height="2.06"/><rect class="cls-1" x="10.32" y="26.84" width="2.06" height="2.06"/><rect class="cls-1" x="14.45" y="26.84" width="2.06" height="2.06"/></g></g></svg>