<?xml version="1.0" encoding="utf-8"?>
<!-- Generator: Adobe Illustrator 20.0.0, SVG Export Plug-In . SVG Version: 6.00 Build 0)  -->
<svg version="1.1" id="Layer_1" xmlns="http://www.w3.org/2000/svg" xmlns:xlink="http://www.w3.org/1999/xlink" x="0px" y="0px"
	 viewBox="0 0 128 128" style="enable-background:new 0 0 128 128;" xml:space="preserve">
<style type="text/css">
	.st0{fill:#333333;}
</style>
<title>Boosting Potential</title>
<g id="Layer_2">
	<g id="Layer_1-2">
		<path class="st0" d="M11.7,91.5c-1.1,0-1.9,0.9-1.9,1.9s0.9,1.9,1.9,1.9c1.1,0,1.9-0.9,1.9-1.9c0,0,0,0,0,0
			C13.7,92.4,12.8,91.5,11.7,91.5C11.7,91.5,11.7,91.5,11.7,91.5z"/>
		<path class="st0" d="M116,38.9c0-20.3-20.8-36.8-46.3-36.8S23.4,18.6,23.4,38.9c0,16.5,7,25.2,13.2,32.9c2.9,3.6,5.7,7,7.4,10.9
			c4.3,9.8,3.5,23.3,3.5,23.5c-0.2,9.6-8.2,17.1-17.7,16.9c-9.2-0.2-16.7-7.7-16.9-16.9v-3h2.6c3.6,0,6.6-2.9,6.6-6.6v-9.1h1.4v-2.3
			h-5.6v-7.6h-2.3v7.6H7.9v-7.6H5.6v7.6H0v2.3h1.4v9.1c0,3.6,2.9,6.6,6.6,6.6h2.6v3c0,10.9,8.8,19.7,19.6,19.7
			c10.9,0,19.7-8.8,19.7-19.6c0-0.6,0.8-14.2-3.7-24.5c-1.8-4.2-4.7-7.7-7.7-11.5c-6-7.4-12.7-15.7-12.7-31.4
			c0-19,19.7-34.5,44-34.5s44,15.5,44,34.5v12l10.9,18.7l-10.9,4.1v27.8c0,2.8-2.2,5-5,5H85.2v2.3h5.4l-1.8,15.3l2.3,0.3l1.8-15.5
			h15.7c4.1,0,7.4-3.3,7.3-7.4V75.3l12-4.5l-12-20.5V38.9z M3.7,96.7v-9.1h16v9.1c0,2.3-1.9,4.2-4.2,4.2H7.9
			C5.6,100.9,3.7,99.1,3.7,96.7z"/>
		<path class="st0" d="M77.1,41.2c1.1-1,2.1-2,3-3.1c3.8-4.3,5.1-7.9,3.6-10.4c-0.7-1.2-2.3-2.6-6.2-2.6c-3,0.1-6,0.7-8.8,1.6
			c-1.5-7.2-4.3-12.5-8.3-12.5s-6.8,5.3-8.3,12.5c-2.9-1-5.8-1.5-8.8-1.6c-3.8,0-5.5,1.4-6.2,2.6c-1.4,2.5-0.2,6.1,3.6,10.4
			c0.9,1.1,1.9,2.1,3,3.1c-1.1,1-2.1,2-3,3.1c-3.8,4.3-5.1,7.9-3.6,10.4c0.7,1.2,2.3,2.6,6.1,2.6c3-0.1,6-0.7,8.9-1.6
			c1.6,7.2,4.4,12.5,8.3,12.5s6.8-5.3,8.3-12.5c2.8,1,5.8,1.5,8.8,1.6c3.8,0,5.5-1.4,6.2-2.6C85.7,51.3,82.5,46.2,77.1,41.2z
			 M77.6,27.5c2.1,0,3.6,0.5,4.1,1.4c0.9,1.5-0.4,4.4-3.3,7.7c-1,1.1-2,2.1-3.1,3.1c-1.6-1.4-3.4-2.7-5.3-4
			c-0.2-2.3-0.4-4.5-0.8-6.6C71.9,28.1,74.7,27.6,77.6,27.5z M64.2,47.7c-1.2,0.7-2.5,1.4-3.7,2c-1.2-0.6-2.5-1.3-3.7-2
			s-2.4-1.5-3.6-2.2c-0.1-1.4-0.1-2.8-0.1-4.2s0.1-2.9,0.1-4.2c1.2-0.8,2.3-1.5,3.6-2.2s2.5-1.4,3.7-2c1.2,0.6,2.5,1.3,3.7,2
			c1.2,0.7,2.4,1.5,3.6,2.2c0.1,1.4,0.1,2.8,0.1,4.2s-0.1,2.8-0.1,4.2C66.6,46.2,65.4,47,64.2,47.7z M67.5,48.3
			c-0.2,1.5-0.3,2.9-0.6,4.2c-1.3-0.5-2.6-1-3.9-1.6c0.8-0.4,1.5-0.8,2.3-1.3S66.8,48.8,67.5,48.3z M57.8,50.9
			c-1.3,0.6-2.6,1.1-3.9,1.6c-0.2-1.3-0.4-2.7-0.5-4.2c0.7,0.5,1.4,0.9,2.2,1.4S57.1,50.5,57.8,50.9L57.8,50.9z M50.7,43.8
			c-1.1-0.8-2.2-1.7-3.3-2.6c1-0.9,2.2-1.7,3.3-2.5c0,0.9,0,1.7,0,2.6C50.7,42.1,50.7,42.9,50.7,43.8L50.7,43.8z M53.4,34.1
			c0.2-1.5,0.3-2.9,0.5-4.2c1.3,0.5,2.6,1,3.9,1.6c-0.8,0.4-1.5,0.8-2.3,1.3C54.8,33.2,54.1,33.7,53.4,34.1z M63.1,31.5
			c1.3-0.6,2.7-1.1,3.9-1.6c0.2,1.3,0.4,2.7,0.5,4.2c-0.7-0.5-1.5-0.9-2.2-1.3C64.6,32.3,63.8,31.9,63.1,31.5L63.1,31.5z M70.2,38.7
			c1.2,0.8,2.3,1.7,3.3,2.5c-1,0.9-2.2,1.7-3.3,2.5c0-0.8,0-1.7,0-2.5S70.2,39.5,70.2,38.7L70.2,38.7z M60.5,16.7
			c2.3,0,4.7,4.2,6.1,10.9c-2.1,0.8-4.1,1.6-6.1,2.6c-2.1-1-4.1-1.9-6.1-2.6C55.8,20.8,58.2,16.6,60.5,16.7L60.5,16.7z M42.5,36.7
			c-3-3.3-4.2-6.2-3.4-7.7c0.5-0.9,2-1.4,4.1-1.4c2.9,0.1,5.7,0.6,8.4,1.6c-0.4,2.1-0.6,4.3-0.8,6.6c-1.8,1.2-3.6,2.6-5.3,4
			C44.5,38.7,43.5,37.7,42.5,36.7L42.5,36.7z M43.2,55c-2.1,0-3.6-0.5-4.1-1.4c-0.9-1.5,0.4-4.4,3.3-7.7c1-1.1,2-2.1,3.1-3.1
			c1.7,1.4,3.5,2.8,5.3,4c0.2,2.3,0.4,4.5,0.8,6.6C48.9,54.3,46.1,54.8,43.2,55L43.2,55z M60.5,65.8c-2.3,0-4.7-4.2-6.1-10.9
			c2.1-0.8,4.1-1.6,6.1-2.6c2,1,4,1.9,6.1,2.6C65.1,61.7,62.7,65.8,60.5,65.8z M81.8,53.5c-0.5,0.9-2,1.4-4.1,1.4
			c-2.9-0.1-5.7-0.7-8.4-1.6c0.4-2.1,0.6-4.3,0.8-6.6c1.8-1.2,3.6-2.6,5.3-4C80.5,47.4,82.9,51.6,81.8,53.5z"/>
	</g>
</g>
</svg>
